<?xml version="1.0" encoding="UTF-8"?>
<svg version="1.1" xmlns="http://www.w3.org/2000/svg" width="512" height="512">
<path d="M0 0 C1.01790619 0.00215515 2.03581238 0.0043103 3.08456421 0.00653076 C17.69363523 0.05620146 32.02575853 0.30709809 46.375 3.3125 C47.34985352 3.51117676 48.32470703 3.70985352 49.32910156 3.91455078 C97.7109774 14.03517194 141.69928269 35.9516877 177.375 70.3125 C178.3640332 71.26068604 178.3640332 71.26068604 179.37304688 72.22802734 C188.86130305 81.37247479 197.6012044 90.66984009 205.375 101.3125 C206.23306152 102.46355017 207.09113451 103.61459177 207.94921875 104.765625 C213.98736829 112.95680614 219.34595521 121.47054105 224.375 130.3125 C224.73948242 130.94430176 225.10396484 131.57610352 225.47949219 132.22705078 C247.08534998 169.97532572 256.85198095 212.74189997 256.6875 255.9375 C256.68534485 256.95540619 256.6831897 257.97331238 256.68096924 259.02206421 C256.63129854 273.63113523 256.38040191 287.96325853 253.375 302.3125 C253.07698486 303.77478027 253.07698486 303.77478027 252.77294922 305.26660156 C242.65232806 353.6484774 220.7358123 397.63678269 186.375 433.3125 C185.74287598 433.97185547 185.11075195 434.63121094 184.45947266 435.31054688 C175.31502521 444.79880305 166.01765991 453.5387044 155.375 461.3125 C154.22394983 462.17056152 153.07290823 463.02863451 151.921875 463.88671875 C143.73224019 469.92427396 135.22961724 475.30707302 126.375 480.3125 C125.66778809 480.7146875 124.96057617 481.116875 124.23193359 481.53125 C101.09654164 494.5566741 75.92537591 503.30551461 49.9375 508.625 C49.21860596 508.77235596 48.49971191 508.91971191 47.7590332 509.0715332 C33.08339502 511.86090125 18.55831162 512.66142619 3.64770508 512.62817383 C0.70811513 512.6250221 -2.2304558 512.64854926 -5.16992188 512.67382812 C-18.54306192 512.71848737 -31.43916711 511.51301542 -44.625 509.3125 C-46.33055054 509.03031616 -46.33055054 509.03031616 -48.07055664 508.74243164 C-91.33802759 500.97044532 -132.38793216 480.98345309 -165.625 452.3125 C-166.37007813 451.67828125 -167.11515625 451.0440625 -167.8828125 450.390625 C-181.38779833 438.57948485 -194.05918743 425.82889772 -204.625 411.3125 C-205.48149066 410.16255169 -206.33826433 409.01281411 -207.1953125 407.86328125 C-213.23534209 399.67315742 -218.61867614 391.16870382 -223.625 382.3125 C-224.0271875 381.60528809 -224.429375 380.89807617 -224.84375 380.16943359 C-237.8691741 357.03404164 -246.61801461 331.86287591 -251.9375 305.875 C-252.08485596 305.15610596 -252.23221191 304.43721191 -252.3840332 303.6965332 C-255.35789088 288.05024391 -255.99800362 272.57681954 -255.9375 256.6875 C-255.93534485 255.66959381 -255.9331897 254.65168762 -255.93096924 253.60293579 C-255.88129854 238.99386477 -255.63040191 224.66174147 -252.625 210.3125 C-252.42632324 209.33764648 -252.22764648 208.36279297 -252.02294922 207.35839844 C-241.90232806 158.9765226 -219.9858123 114.98821731 -185.625 79.3125 C-184.99287598 78.65314453 -184.36075195 77.99378906 -183.70947266 77.31445312 C-174.56502521 67.82619695 -165.26765991 59.0862956 -154.625 51.3125 C-153.47394983 50.45443848 -152.32290823 49.59636549 -151.171875 48.73828125 C-142.98224019 42.70072604 -134.47961724 37.31792698 -125.625 32.3125 C-124.91778809 31.9103125 -124.21057617 31.508125 -123.48193359 31.09375 C-100.34654164 18.0683259 -75.17537591 9.31948539 -49.1875 4 C-48.46860596 3.85264404 -47.74971191 3.70528809 -47.0090332 3.5534668 C-31.36274391 0.57960912 -15.88931954 -0.06050362 0 0 Z " fill="#4793FE" transform="translate(255.625,-0.3125)"/>
<path d="M0 0 C3.86901426 1.28967142 4.24084285 2.70902933 6.25 6.1875 C10.79592163 13.51993845 15.24586522 18.14307867 23.68359375 20.52734375 C31.56325476 22.13516665 37.93672987 20.82961677 45 17 C47.49438122 15.22427435 49.85493818 13.37330255 52.1875 11.390625 C54 10 54 10 56 10 C56.23074219 11.2065625 56.46148437 12.413125 56.69921875 13.65625 C59.00655449 25.19292872 60.88281184 33.83457898 71.02734375 40.8125 C78.82800164 45.50834158 87.00938983 44.24529209 95.5 42.5 C96.22703125 42.35691406 96.9540625 42.21382812 97.703125 42.06640625 C99.47009071 41.71766302 101.23525309 41.35980277 103 41 C102.855625 41.89460938 102.71125 42.78921875 102.5625 43.7109375 C100.68420083 55.94596959 99.34009534 64.95623776 106.09765625 75.75390625 C112.71477767 84.70384335 123.84791442 85.37369503 134 87 C132.2180842 91.91808761 129.53287406 95.94193573 126.65625 100.28125 C122.43186092 107.21562452 121.84833593 113.74408343 123.58203125 121.65625 C127.07302194 131.98575671 136.12795403 137.46283655 145 143 C142.21703133 145.9440201 139.37684225 148.20857821 136 150.4375 C130.1276499 154.49899324 125.78263074 158.88211979 124 166 C122.68552511 175.72190835 124.74366835 182.80205155 130 191 C130.72703125 191.8765625 131.4540625 192.753125 132.203125 193.65625 C134 196 134 196 134 199 C132.9378125 199.17015625 131.875625 199.3403125 130.78125 199.515625 C116.24618151 201.8911269 116.24618151 201.8911269 105.25390625 211.16796875 C100.05051055 218.77043785 99.93676728 226.72056572 101.45703125 235.69921875 C101.7955381 237.1725759 102.15976668 238.64054471 102.5625 240.09765625 C103 242 103 242 103 246 C102.3915625 245.855625 101.783125 245.71125 101.15625 245.5625 C92.71796444 243.77556894 84.57348917 243.80637038 76 244 C76.061875 245.2375 76.12375 246.475 76.1875 247.75 C76.08904226 263.527853 68.56516642 277.43798185 57.6796875 288.3828125 C56.79539062 289.24648438 55.91109375 290.11015625 55 291 C54.01386719 292.01707031 54.01386719 292.01707031 53.0078125 293.0546875 C37.07742689 308.43810708 14.89287582 309.60818293 -5.90307617 309.48583984 C-8.05033092 309.48799094 -10.19758451 309.49187637 -12.34483337 309.49734497 C-18.12569114 309.50695929 -23.90623546 309.49183554 -29.68705535 309.47143888 C-35.76364079 309.45374224 -41.84021837 309.45739537 -47.91682434 309.4581604 C-58.11379169 309.45629327 -68.31063927 309.43900742 -78.50756836 309.41162109 C-90.26774992 309.3801514 -102.02780064 309.36962617 -113.78802127 309.3710922 C-126.3554798 309.37244683 -138.92288847 309.35854746 -151.49033189 309.34019899 C-155.09231842 309.335953 -158.69429682 309.33451893 -162.29628563 309.33372116 C-167.97062589 309.33170048 -173.64485793 309.31939533 -179.31916237 309.29938889 C-181.39187583 309.29358732 -183.46460175 309.29107823 -185.537323 309.29224396 C-214.55017313 309.30237991 -238.73246322 303.74161192 -260 283 C-275.19711645 267.26347972 -283.50964655 245.99110465 -283.625 224.1875 C-283.16730146 199.61685311 -272.64314782 178.67334506 -255.05078125 161.640625 C-239.00402606 147.27165247 -217.97140983 140.1939269 -196.64453125 140.76171875 C-193.64919941 140.95755502 -190.9121203 141.30448389 -188 142 C-187.90976563 141.00484375 -187.81953125 140.0096875 -187.7265625 138.984375 C-187.09824652 134.62775897 -185.40146616 131.12097932 -183.375 127.25 C-182.8332312 126.1995752 -182.8332312 126.1995752 -182.28051758 125.12792969 C-169.36753017 100.42975144 -149.55804756 82.95529528 -123 74 C-115.99297772 71.99126797 -109.10923825 70.69613687 -101.828125 70.30859375 C-101.22484375 70.20675781 -100.6215625 70.10492188 -100 70 C-96.17856276 62.35712553 -99.35249377 50.03159287 -101 42 C-99.41632253 42.14204741 -97.83306682 42.28880153 -96.25 42.4375 C-95.36828125 42.51871094 -94.4865625 42.59992188 -93.578125 42.68359375 C-91.30021854 42.963155 -89.21984663 43.44391721 -87 44 C-78.5221064 44.98881742 -71.93979222 42.44281847 -65.1875 37.375 C-58.0902146 30.8022253 -56.87047381 20.04062343 -55 11 C-51.20164698 12.35413655 -48.28875472 14.09432508 -45.0625 16.5 C-37.92616557 21.54790715 -31.72797563 23.21600702 -23 22 C-12.19425766 18.87129654 -7.45470251 12.16047574 -2 3 C-1.34 2.01 -0.68 1.02 0 0 Z " fill="#D9EEEB" transform="translate(325,78)"/>
<path d="M0 0 C4.93086742 4.13407891 9.56752989 8.43194106 14.09692383 12.99926758 C14.7677298 13.67153381 15.43853577 14.34380005 16.12966919 15.03643799 C17.57340125 16.48395143 19.01597783 17.93261811 20.45749855 19.38233376 C22.73715232 21.67482191 25.01997768 23.96410927 27.30363464 26.25260925 C32.1427422 31.10310028 36.97789328 35.95752342 41.8125 40.8125 C47.43328008 46.45686882 53.05566359 52.09962081 58.6822567 57.73819542 C60.93448872 59.9969237 63.18369697 62.25863415 65.43281555 64.52046204 C66.8050796 65.89635639 68.17748299 67.27211178 69.55004883 68.64770508 C70.49056847 69.5959742 70.49056847 69.5959742 71.4500885 70.56340027 C74.43695394 73.6596537 74.43695394 73.6596537 78 76 C78.5625 77.6796875 78.5625 77.6796875 79 79.875 C79.165 80.69742188 79.33 81.51984375 79.5 82.3671875 C79.665 83.23601562 79.83 84.10484375 80 85 C80.165 85.80695313 80.33 86.61390625 80.5 87.4453125 C83.64253202 103.50168703 84.3746539 119.3022878 84.3125 135.625 C84.31034485 136.64290619 84.3081897 137.66081238 84.30596924 138.70956421 C84.25629854 153.31863523 84.00540191 167.65075853 81 182 C80.70198486 183.46228027 80.70198486 183.46228027 80.39794922 184.95410156 C70.27732806 233.3359774 48.3608123 277.32428269 14 313 C13.36787598 313.65935547 12.73575195 314.31871094 12.08447266 314.99804688 C2.94002521 324.48630305 -6.35734009 333.2262044 -17 341 C-18.15105017 341.85806152 -19.30209177 342.71613451 -20.453125 343.57421875 C-28.64275981 349.61177396 -37.14538276 354.99457302 -46 360 C-46.70721191 360.4021875 -47.41442383 360.804375 -48.14306641 361.21875 C-71.27845836 374.2441741 -96.44962409 382.99301461 -122.4375 388.3125 C-123.15639404 388.45985596 -123.87528809 388.60721191 -124.6159668 388.7590332 C-139.39788462 391.5686016 -153.98430483 392.32458438 -169.00195312 392.26074219 C-171.99629962 392.25001326 -174.99004644 392.26070818 -177.984375 392.2734375 C-186.89990337 392.28115117 -195.75516558 392.13443037 -204.625 391.171875 C-205.30546387 391.10276917 -205.98592773 391.03366333 -206.68701172 390.96246338 C-213.77960178 390.070463 -217.84738275 386.44878089 -222.72639465 381.51411438 C-223.55972219 380.68335012 -223.55972219 380.68335012 -224.40988463 379.83580273 C-226.26477398 377.98419994 -228.11243806 376.12555407 -229.96020508 374.2668457 C-231.29054527 372.93594122 -232.6213263 371.60547728 -233.95251465 370.27542114 C-237.56196736 366.66654223 -241.16522048 363.0515302 -244.76739717 359.43539071 C-248.53411782 355.6561674 -252.30650314 351.88260724 -256.07829285 348.10844421 C-263.21845953 340.96206141 -270.35351264 333.81059565 -277.48674554 326.65729254 C-285.6085149 318.51316834 -293.73596415 310.37472254 -301.86389697 302.23675025 C-318.58226183 285.49748038 -335.29347631 268.7510873 -352 252 C-351.34 251.67 -350.68 251.34 -350 251 C-347.87621771 252.14848313 -345.85736672 253.34862531 -343.8125 254.625 C-325.49024619 265.52407457 -306.25909626 266.30221096 -285.48510742 266.29052734 C-283.34316272 266.29652269 -281.20122017 266.30333052 -279.0592804 266.31088257 C-273.27814891 266.32844483 -267.49707675 266.33323373 -261.71592116 266.33451414 C-258.09515193 266.33594157 -254.47439751 266.34022226 -250.85363197 266.34550858 C-238.19692665 266.36397472 -225.54026327 266.37218325 -212.88354492 266.37060547 C-201.12514369 266.36940419 -189.36692603 266.39051288 -177.60857123 266.4220928 C-167.47816208 266.44832146 -157.34781267 266.45897004 -147.21736985 266.45769465 C-141.18238081 266.45718707 -135.14755524 266.46275742 -129.11260033 266.48405075 C-123.43331189 266.50354516 -117.75434105 266.50348149 -112.07504082 266.48901749 C-110.0035785 266.48694232 -107.93209569 266.49155215 -105.86066818 266.5037384 C-84.33511118 266.62206672 -64.25967138 263.68025888 -48.05883789 248.18701172 C-36.16979612 236.33632821 -29.03563529 222.64619172 -27.4375 205.8125 C-27.293125 204.554375 -27.14875 203.29625 -27 202 C-19.84353711 198.42176856 -9.17492046 201.08388643 -1.9140625 203.34375 C-1.28242188 203.5603125 -0.65078125 203.776875 0 204 C-0.2165625 203.21238281 -0.433125 202.42476562 -0.65625 201.61328125 C-3.41773597 190.81024586 -5.415507 180.32704914 0.375 170.2265625 C5.66255791 162.98159133 11.74407653 159.42450331 20.5 157.875 C21.87671875 157.62363281 21.87671875 157.62363281 23.28125 157.3671875 C25.89369139 157.01435777 28.36788753 156.93324352 31 157 C28.18382279 152.01753263 25.26197788 147.11319937 22.26953125 142.234375 C19.03218402 136.53664387 19.37583229 130.36505904 20 124 C23.18730406 113.20189046 31.67242061 107.38320406 41 102 C38.6374506 100.09471823 36.27178393 98.20297787 33.83984375 96.38671875 C25.80597899 90.33784895 20.18993079 84.72265083 18.609375 74.46484375 C17.88883814 63.08363646 24.64848113 53.91915416 31 45 C30.32195312 44.96261719 29.64390625 44.92523438 28.9453125 44.88671875 C19.15802115 44.19537268 11.00386221 42.93056889 3.69140625 35.97265625 C-1.33057616 30.11560979 -3.27932644 23.58116767 -3.234375 15.984375 C-2.80584498 10.52775939 -1.39044185 5.28036844 0 0 Z " fill="#424FDD" transform="translate(428,120)"/>
<path d="M0 0 C0 78.21 0 156.42 0 237 C-118.72239649 237 -118.72239649 237 -133.375 229.1875 C-134.37684326 228.66820923 -134.37684326 228.66820923 -135.39892578 228.13842773 C-140.75049461 225.29080992 -145.44810681 222.0108191 -150 218 C-150.80695313 217.34644531 -151.61390625 216.69289063 -152.4453125 216.01953125 C-167.95905972 202.99652327 -178.28891403 182.3965472 -180.27490234 162.20507812 C-181.79986085 136.76347349 -174.37828494 115.38987329 -157.54296875 96.19921875 C-143.38321215 81.21019383 -123.23773662 70.59239894 -102.375 69.71875 C-96.50769637 69.62262569 -90.74092391 69.62886672 -85 71 C-84.90976563 70.00484375 -84.81953125 69.0096875 -84.7265625 67.984375 C-84.09824652 63.62775897 -82.40146616 60.12097932 -80.375 56.25 C-80.0138208 55.5497168 -79.6526416 54.84943359 -79.28051758 54.12792969 C-66.36764476 29.42997062 -46.55794116 11.95493604 -20 3 C-13.0617976 1.00149605 -7.2763401 0 0 0 Z " fill="#FEFEFE" transform="translate(222,149)"/>
<path d="M0 0 C3.86901426 1.28967142 4.24084285 2.70902933 6.25 6.1875 C10.79592163 13.51993845 15.24586522 18.14307867 23.68359375 20.52734375 C31.56325476 22.13516665 37.93672987 20.82961677 45 17 C47.49438122 15.22427435 49.85493818 13.37330255 52.1875 11.390625 C54 10 54 10 56 10 C56.34611328 11.80984375 56.34611328 11.80984375 56.69921875 13.65625 C59.00655449 25.19292872 60.88281184 33.83457898 71.02734375 40.8125 C78.82800164 45.50834158 87.00938983 44.24529209 95.5 42.5 C96.22703125 42.35691406 96.9540625 42.21382812 97.703125 42.06640625 C99.47009071 41.71766302 101.23525309 41.35980277 103 41 C102.855625 41.89460938 102.71125 42.78921875 102.5625 43.7109375 C100.68420083 55.94596959 99.34009534 64.95623776 106.09765625 75.75390625 C112.71477767 84.70384335 123.84791442 85.37369503 134 87 C132.2180842 91.91808761 129.53287406 95.94193573 126.65625 100.28125 C122.43186092 107.21562452 121.84833593 113.74408343 123.58203125 121.65625 C127.07302194 131.98575671 136.12795403 137.46283655 145 143 C142.21703133 145.9440201 139.37684225 148.20857821 136 150.4375 C130.1276499 154.49899324 125.78263074 158.88211979 124 166 C122.68552511 175.72190835 124.74366835 182.80205155 130 191 C130.72703125 191.8765625 131.4540625 192.753125 132.203125 193.65625 C134 196 134 196 134 199 C132.9378125 199.17015625 131.875625 199.3403125 130.78125 199.515625 C116.24618151 201.8911269 116.24618151 201.8911269 105.25390625 211.16796875 C100.05051055 218.77043785 99.93676728 226.72056572 101.45703125 235.69921875 C101.7955381 237.1725759 102.15976668 238.64054471 102.5625 240.09765625 C103 242 103 242 103 246 C102.3915625 245.855625 101.783125 245.71125 101.15625 245.5625 C92.71796444 243.77556894 84.57348917 243.80637038 76 244 C75.91363281 242.85144531 75.82726562 241.70289063 75.73828125 240.51953125 C74.02617122 220.6108749 66.89730668 203.91016609 51.36328125 190.76953125 C36.42534805 179.41158775 21.26669225 176.58276576 3 176 C2.97421875 174.83726562 2.9484375 173.67453125 2.921875 172.4765625 C2.01817115 143.7877432 -6.8493952 118.38632694 -27.40625 97.5625 C-47.35113669 78.87994792 -72.33804992 71.70307611 -99 70 C-98.96519531 68.47632813 -98.96519531 68.47632813 -98.9296875 66.921875 C-98.79664151 58.3903012 -99.22021722 50.39040454 -101 42 C-99.41632253 42.14204741 -97.83306682 42.28880153 -96.25 42.4375 C-95.36828125 42.51871094 -94.4865625 42.59992188 -93.578125 42.68359375 C-91.30021854 42.963155 -89.21984663 43.44391721 -87 44 C-78.5221064 44.98881742 -71.93979222 42.44281847 -65.1875 37.375 C-58.0902146 30.8022253 -56.87047381 20.04062343 -55 11 C-51.20164698 12.35413655 -48.28875472 14.09432508 -45.0625 16.5 C-37.92616557 21.54790715 -31.72797563 23.21600702 -23 22 C-12.19425766 18.87129654 -7.45470251 12.16047574 -2 3 C-1.34 2.01 -0.68 1.02 0 0 Z " fill="#F9CA0D" transform="translate(325,78)"/>
<path d="M0 0 C3.86901426 1.28967142 4.24084285 2.70902933 6.25 6.1875 C10.79592163 13.51993845 15.24586522 18.14307867 23.68359375 20.52734375 C31.56325476 22.13516665 37.93672987 20.82961677 45 17 C47.49438122 15.22427435 49.85493818 13.37330255 52.1875 11.390625 C54 10 54 10 56 10 C56.34611328 11.80984375 56.34611328 11.80984375 56.69921875 13.65625 C59.00655449 25.19292872 60.88281184 33.83457898 71.02734375 40.8125 C78.82800164 45.50834158 87.00938983 44.24529209 95.5 42.5 C96.22703125 42.35691406 96.9540625 42.21382812 97.703125 42.06640625 C99.47009071 41.71766302 101.23525309 41.35980277 103 41 C102.855625 41.89460938 102.71125 42.78921875 102.5625 43.7109375 C100.68420083 55.94596959 99.34009534 64.95623776 106.09765625 75.75390625 C112.71477767 84.70384335 123.84791442 85.37369503 134 87 C132.2180842 91.91808761 129.53287406 95.94193573 126.65625 100.28125 C122.43186092 107.21562452 121.84833593 113.74408343 123.58203125 121.65625 C127.07302194 131.98575671 136.12795403 137.46283655 145 143 C142.21703133 145.9440201 139.37684225 148.20857821 136 150.4375 C130.1276499 154.49899324 125.78263074 158.88211979 124 166 C122.68552511 175.72190835 124.74366835 182.80205155 130 191 C130.72703125 191.8765625 131.4540625 192.753125 132.203125 193.65625 C134 196 134 196 134 199 C132.9378125 199.17015625 131.875625 199.3403125 130.78125 199.515625 C116.24618151 201.8911269 116.24618151 201.8911269 105.25390625 211.16796875 C100.05051055 218.77043785 99.93676728 226.72056572 101.45703125 235.69921875 C101.7955381 237.1725759 102.15976668 238.64054471 102.5625 240.09765625 C103 242 103 242 103 246 C102.3915625 245.855625 101.783125 245.71125 101.15625 245.5625 C92.71796444 243.77556894 84.57348917 243.80637038 76 244 C75.89042969 242.81664062 75.78085937 241.63328125 75.66796875 240.4140625 C74.84120052 232.0059185 74.00306725 223.96813845 71 216 C71.969375 215.113125 72.93875 214.22625 73.9375 213.3125 C91.89034282 195.25085207 101.07045804 169.88723357 101.3125 144.8125 C101.20767819 118.23482332 92.90629515 94.94182426 75 75 C74.38769531 74.30519531 73.77539062 73.61039062 73.14453125 72.89453125 C59.6319554 58.45998861 41.09394585 49.33643717 22 45 C21.04996094 44.76410156 20.09992188 44.52820313 19.12109375 44.28515625 C11.53633359 42.73992549 4.08193544 42.93772515 -3.625 43.1875 C-4.67405518 43.21739014 -5.72311035 43.24728027 -6.80395508 43.27807617 C-13.9019055 43.59734186 -20.23074155 44.88086113 -27 47 C-28.04671875 47.29261719 -29.0934375 47.58523437 -30.171875 47.88671875 C-43.78241898 52.1142362 -59.82162997 59.96671503 -68.859375 71.33984375 C-71 73 -71 73 -74.72265625 72.98828125 C-76.17247703 72.78467446 -77.61922518 72.55825151 -79.0625 72.3125 C-80.5831643 72.09128285 -82.10399881 71.87123262 -83.625 71.65234375 C-84.3675 71.53874512 -85.11 71.42514648 -85.875 71.30810547 C-88.76270002 70.88941551 -91.65553267 70.62103239 -94.5625 70.375 C-95.43003906 70.30023438 -96.29757813 70.22546875 -97.19140625 70.1484375 C-98.08666016 70.07496094 -98.08666016 70.07496094 -99 70 C-98.96519531 68.47632813 -98.96519531 68.47632813 -98.9296875 66.921875 C-98.79664151 58.3903012 -99.22021722 50.39040454 -101 42 C-99.41632253 42.14204741 -97.83306682 42.28880153 -96.25 42.4375 C-95.36828125 42.51871094 -94.4865625 42.59992188 -93.578125 42.68359375 C-91.30021854 42.963155 -89.21984663 43.44391721 -87 44 C-78.5221064 44.98881742 -71.93979222 42.44281847 -65.1875 37.375 C-58.0902146 30.8022253 -56.87047381 20.04062343 -55 11 C-51.20164698 12.35413655 -48.28875472 14.09432508 -45.0625 16.5 C-37.92616557 21.54790715 -31.72797563 23.21600702 -23 22 C-12.19425766 18.87129654 -7.45470251 12.16047574 -2 3 C-1.34 2.01 -0.68 1.02 0 0 Z " fill="#FB9828" transform="translate(325,78)"/>
<path d="M0 0 C0 33.99 0 67.98 0 103 C-1.55103192 99.89793616 -2.76223138 96.93035951 -3.90112305 93.67114258 C-13.23417382 67.2899289 -30.80979313 48.62984556 -55.91796875 36.35546875 C-60.82574791 34.19704116 -65.87072435 32.54605826 -71 31 C-71 28 -71 28 -69.26953125 26.01953125 C-56.86274796 14.87512336 -42.08250347 6.56477072 -26 2 C-25.03320312 1.69255859 -25.03320312 1.69255859 -24.046875 1.37890625 C-15.8717165 -0.88330364 -8.97869234 0 0 0 Z " fill="#FEDF5F" transform="translate(326,121)"/>
<path d="M0 0 C0.33 0 0.66 0 1 0 C1 14.19 1 28.38 1 43 C-7.415 43.495 -7.415 43.495 -16 44 C-19.84561952 44.8683657 -23.30431856 45.76253201 -27 47 C-28.39025391 47.39832031 -28.39025391 47.39832031 -29.80859375 47.8046875 C-43.53857884 51.9255064 -59.77115117 59.90319233 -68.859375 71.33984375 C-71 73 -71 73 -74.72265625 72.98828125 C-76.17247703 72.78467446 -77.61922518 72.55825151 -79.0625 72.3125 C-80.5831643 72.09128285 -82.10399881 71.87123262 -83.625 71.65234375 C-84.3675 71.53874512 -85.11 71.42514648 -85.875 71.30810547 C-88.76270002 70.88941551 -91.65553267 70.62103239 -94.5625 70.375 C-95.43003906 70.30023438 -96.29757813 70.22546875 -97.19140625 70.1484375 C-98.08666016 70.07496094 -98.08666016 70.07496094 -99 70 C-98.96519531 68.47632813 -98.96519531 68.47632813 -98.9296875 66.921875 C-98.79664151 58.3903012 -99.22021722 50.39040454 -101 42 C-99.41632253 42.14204741 -97.83306682 42.28880153 -96.25 42.4375 C-95.36828125 42.51871094 -94.4865625 42.59992188 -93.578125 42.68359375 C-91.30021854 42.963155 -89.21984663 43.44391721 -87 44 C-78.5221064 44.98881742 -71.93979222 42.44281847 -65.1875 37.375 C-58.0902146 30.8022253 -56.87047381 20.04062343 -55 11 C-51.20164698 12.35413655 -48.28875472 14.09432508 -45.0625 16.5 C-37.92616557 21.54790715 -31.72797563 23.21600702 -23 22 C-12.19425766 18.87129654 -7.45470251 12.16047574 -2 3 C-1.34 2.01 -0.68 1.02 0 0 Z " fill="#FBBE2E" transform="translate(325,78)"/>
<path d="M0 0 C0.66 0 1.32 0 2 0 C3.2265625 1.28515625 3.2265625 1.28515625 4.625 3.0625 C6.79127073 5.695557 9.00821455 7.96452214 11.6171875 10.15625 C16.48206736 14.35132756 20.98369248 18.8733814 25.5 23.4375 C26.32242187 24.26443359 27.14484375 25.09136719 27.9921875 25.94335938 C29.99712113 27.95994959 31.99966253 29.97885236 34 32 C30.23717633 34.50854911 27.35114468 34.59885092 23 34 C15.60633566 31.84888163 8.66538613 27.49240155 4.68359375 20.78125 C1.76693074 14.15149201 0.85118054 7.14543662 0 0 Z " fill="#4450DB" transform="translate(381,89)"/>
<path d="M0 0 C3.85195777 1.56931613 6.11743947 4.05040318 9 7 C9.88300781 7.88300781 10.76601563 8.76601562 11.67578125 9.67578125 C14.1171875 12.1171875 16.55859375 14.55859375 19 17 C18.01 17.33 17.02 17.66 16 18 C8.40925588 13.85392621 4.0515302 7.37957287 0 0 Z " fill="#4758DB" transform="translate(328,80)"/>
</svg>
